<?xml version="1.0" encoding="UTF-8"?>
<svg width="42px" height="42px" viewBox="0 0 42 42" version="1.1" xmlns="http://www.w3.org/2000/svg" xmlns:xlink="http://www.w3.org/1999/xlink">
    <title>Izquierda@1,5x</title>
    <g id="Symbols" stroke="none" stroke-width="1" fill="none" fill-rule="evenodd">
        <g id="Componentes/Calendario-doble" transform="translate(-12.000000, -16.000000)">
            <g id="Izquierda" transform="translate(12.000000, 16.000000)">
                <rect id="Rectangle-Copy-5" fill="#F1F2F3" x="0" y="0" width="42" height="42" rx="10"></rect>
                <g id="Group">
                    <rect id="Rectangle-Copy-14" fill-opacity="0" fill="#D8D8D8" x="0" y="0" width="42" height="42"></rect>
                    <path d="M19.7790815,20.9994783 L24.634528,16.2540902 C24.7738572,16.1176881 24.852303,15.9344526 24.8546984,15.7389234 C24.8569864,15.5433942 24.7826384,15.358988 24.6462363,15.2190734 C24.3658217,14.9322191 23.9021717,14.9257796 23.6112195,15.207365 L18.2201167,20.4755303 C18.0802021,20.6125179 18,20.8033637 18,20.9994783 C18,21.1955929 18.0802021,21.3864388 18.2201167,21.5228409 L23.611805,26.7921771 C23.7493779,26.9262375 23.9308571,27 24.1228738,27 C24.318403,27 24.5092488,26.9197979 24.6456509,26.7798833 C24.7826384,26.6399687 24.8569864,26.4555624 24.8546984,26.2600332 C24.852303,26.064504 24.7738572,25.8812686 24.634528,25.7448665 L19.7790815,20.9994783 Z" id="Fill-4" fill="#2E2C35"></path>
                </g>
            </g>
        </g>
    </g>
</svg>