<svg width="1280" height="720" viewBox="0 0 1280 720" fill="none" xmlns="http://www.w3.org/2000/svg">
<path d="M683.364 306.78C691.572 339.5 710.41 371.149 737.461 400.501C871.218 546.169 1205.35 638.713 1436.49 546.121C1474.38 531.353 1509.69 510.65 1541.08 484.79C1624.11 415.849 1689.45 297.46 1705.06 176.06C1711.49 126.235 1718.64 63.0342 1684.86 -0.23376C1616.81 -127.703 1444.06 -138.025 1435.4 -138.382C1314.1 -143.775 1297.61 -74.2235 1105.55 -1.99607C891.962 78.495 788.074 39.2049 719.506 136.49C687.927 180.963 668.595 247.585 683.364 306.78Z" fill="#DED6FF" fill-opacity="0.2"/>
<path d="M412.743 579.919C422.776 596.626 428.035 617.244 429.003 640.284C434.009 754.426 335.53 928.849 203.354 985.607C181.853 995.08 158.98 1001.07 135.594 1003.36C73.5191 1009.19 -1.56261 987.616 -57.5846 944.467C-80.586 926.767 -109.356 903.907 -121.448 864.275C-145.821 784.435 -79.5599 709.568 -76.1717 705.879C-28.8864 654.066 6.28987 675.699 114.193 626.614C234.262 572.095 260.579 513.573 328.346 525.221C359.42 530.451 394.557 549.726 412.743 579.919Z" fill="#A7F7CB" fill-opacity="0.2"/>
<g clip-path="url(#clip0)">
<path d="M1096.37 437.51C1088.3 451.377 1078.85 464.398 1068.18 476.379V476.379L1067.83 476.781C1056.88 488.926 1043.45 498.576 1028.46 505.078C1013.46 511.58 997.241 514.782 980.9 514.468L853.734 512.813C825.307 503.857 798.015 491.631 772.406 476.379C772.406 476.379 772.406 476.379 772.406 476.379C750.668 463.21 728.954 446.305 713.596 425.759C700.506 408.264 692.07 387.931 692.141 364.973C692.141 364.973 685.573 283.334 823.797 278.748C886.978 271.347 876.227 196.281 1011.66 199.024C1016.17 199.093 1020.66 199.408 1025.13 199.969C1032.27 200.863 1039.31 202.406 1046.16 204.58C1081.37 215.999 1105.99 243.827 1117.9 279.41C1120.19 286.289 1122.01 293.32 1123.33 300.452C1130.91 342.465 1122.88 391.95 1096.37 437.51Z" fill="#DFEAF7"/>
<path d="M1123.21 300.475H1025.06V200.017C1032.18 200.945 1039.21 202.528 1046.04 204.745C1081.3 216.165 1105.92 243.969 1117.8 279.551C1120.09 286.391 1121.9 293.383 1123.21 300.475V300.475Z" fill="#F1F3F6"/>
<path d="M1117.8 279.457H1046.04V204.651C1081.3 216.07 1105.92 243.874 1117.8 279.457Z" fill="#DFEAF7"/>
<path d="M1075.74 425.807H1017.26C1017.36 412.866 1017.44 399.918 1017.52 386.961C1016.39 386.325 1015.36 385.529 1014.45 384.597C1002.94 373.201 1015.09 345.208 1016.51 342.04L1024.21 353.436H1040.09L1046.4 342.158C1048.25 346.072 1049.82 350.109 1051.12 354.239C1054.46 364.996 1055.88 376.256 1055.33 387.505C1060.36 387.623 1063.76 389.231 1075.74 425.807Z" fill="#002D53"/>
<path d="M1021.85 369.536C1021.85 371.239 1021.61 372.61 1021.3 372.61C1021 372.61 1020.78 371.239 1020.78 369.536C1020.78 367.834 1021.02 366.463 1021.3 366.463C1021.59 366.463 1021.85 367.834 1021.85 369.536Z" fill="white"/>
<path d="M1037.42 369.536C1037.42 371.239 1037.18 372.61 1036.9 372.61C1036.62 372.61 1036.36 371.239 1036.36 369.536C1036.36 367.834 1036.59 366.463 1036.9 366.463C1037.21 366.463 1037.42 367.834 1037.42 369.536Z" fill="white"/>
<path d="M858.719 425.83H822.805L836.911 368.993H872.825L858.719 425.83Z" fill="#002D53"/>
<path d="M944.584 393.747C944.693 394.615 944.614 395.496 944.352 396.331C944.09 397.166 943.652 397.935 943.067 398.585C942.482 399.235 941.764 399.752 940.962 400.1C940.159 400.449 939.292 400.62 938.417 400.603H753.197C751.316 400.562 749.512 399.848 748.111 398.59C746.711 397.332 745.808 395.614 745.565 393.747L733.302 278.251C733.19 277.384 733.266 276.503 733.525 275.668C733.784 274.833 734.22 274.064 734.803 273.413C735.386 272.763 736.103 272.245 736.904 271.897C737.705 271.549 738.572 271.377 739.446 271.395H924.666C926.549 271.431 928.356 272.143 929.757 273.402C931.158 274.661 932.06 276.382 932.298 278.251L944.584 393.747Z" fill="white"/>
<path d="M944.584 393.747C944.693 394.615 944.614 395.496 944.352 396.331C944.09 397.166 943.652 397.935 943.067 398.585C942.482 399.235 941.764 399.752 940.962 400.1C940.159 400.449 939.292 400.62 938.417 400.603H753.197C751.316 400.562 749.512 399.848 748.111 398.59C746.711 397.332 745.808 395.614 745.565 393.747L733.302 278.251C733.19 277.384 733.266 276.503 733.525 275.668C733.784 274.833 734.22 274.064 734.803 273.413C735.386 272.763 736.103 272.245 736.904 271.897C737.705 271.549 738.572 271.377 739.446 271.395H924.666C926.549 271.431 928.356 272.143 929.757 273.402C931.158 274.661 932.06 276.382 932.298 278.251L944.584 393.747Z" fill="#002D53"/>
<path d="M760.946 391.997C759.061 391.956 757.254 391.238 755.853 389.975C754.453 388.713 753.552 386.989 753.314 385.117L742.871 286.857C742.758 285.988 742.835 285.105 743.095 284.269C743.355 283.432 743.793 282.662 744.379 282.01C744.965 281.359 745.685 280.842 746.489 280.495C747.293 280.149 748.162 279.98 749.038 280.001H916.939C918.816 280.047 920.615 280.764 922.01 282.021C923.405 283.279 924.305 284.994 924.547 286.857L934.99 385.117C935.103 385.987 935.026 386.871 934.766 387.709C934.506 388.547 934.068 389.318 933.483 389.971C932.897 390.624 932.178 391.143 931.374 391.493C930.57 391.843 929.7 392.015 928.824 391.997H760.946Z" fill="#004072"/>
<path d="M802.745 310.736H762.742L761.75 304.495H801.776L802.745 310.736Z" fill="#FF828A"/>
<path d="M853.262 310.736H813.236L812.268 304.495H852.293L853.262 310.736Z" fill="white"/>
<path d="M805.721 328.847H765.719L764.727 322.605H804.752L805.721 328.847Z" fill="white"/>
<path d="M835.752 344.262H795.727L794.758 338.02H834.76L835.752 344.262Z" fill="white"/>
<path d="M859.522 361.852H819.52L818.527 355.611H858.53L859.522 361.852Z" fill="white"/>
<path d="M883.859 361.852H863.846L862.877 355.611H882.89L883.859 361.852Z" fill="#FF828A"/>
<path d="M880.008 344.262H840.006L839.037 338.02H879.039L880.008 344.262Z" fill="#FF828A"/>
<path d="M1068.18 476.379L1067.83 476.781C1056.88 488.926 1043.45 498.576 1028.46 505.078C1013.46 511.58 997.242 514.782 980.9 514.468L853.734 512.813C825.307 503.857 798.015 491.631 772.406 476.379C772.406 476.379 772.406 476.379 772.406 476.379H1068.18Z" fill="#BC7F72"/>
<path d="M1096.39 437.51C1088.27 451.41 1078.78 464.456 1068.04 476.45H772.407C750.622 463.257 728.86 446.4 713.502 425.807H1088.01L1096.39 437.51Z" fill="#D18C7E"/>
<path d="M971.85 344.239C963.226 370.246 941.323 386.37 922.94 380.27C904.558 374.17 896.666 348.116 905.29 322.109C913.914 296.102 935.817 279.977 954.2 286.077C972.583 292.177 980.475 318.231 971.85 344.239Z" fill="#FFB3AE"/>
<path d="M973.599 350.433H936.432V394.787H973.599V350.433Z" fill="#FFB3AE"/>
<path d="M902.502 333.788C902.502 333.788 871.785 316.316 896.193 285.935C902.502 276.714 902.502 295.392 902.502 295.392C902.502 295.392 923.436 234.654 958.925 273.381C958.925 273.381 992.477 279.079 999.92 301.752C1002.28 309.058 1001.01 315.323 999.707 322.038C999.235 324.402 990.705 365.162 961.903 370.198C957.909 370.908 948.529 371.782 936.337 365.328L902.502 333.788Z" fill="#002D53"/>
<path d="M932.794 349.062C933.526 357.171 931.4 364.004 928.068 364.311C924.737 364.619 921.382 358.282 920.649 350.126C919.917 341.969 922.067 335.183 925.375 334.876C928.683 334.568 932.062 340.952 932.794 349.062Z" fill="#FFB3AE"/>
<path d="M1052.21 507.446C1052.21 507.446 1044.93 511.607 1025.23 515.13C1002.71 519.173 963.959 522.388 901.345 517.612C886.79 516.501 870.936 514.964 853.711 512.883C857.799 495.865 863.405 479.248 870.463 463.233C886.554 426.398 915.522 381.807 962.187 376.369C1008.31 371.121 1031.09 414.482 1042.17 452.736C1047.28 470.603 1050.64 488.926 1052.21 507.446V507.446Z" fill="#3D71F2"/>
<path d="M1052.21 507.446C1052.21 507.446 1044.93 511.607 1025.23 515.13L1019.22 461.105L1042.17 452.736C1047.28 470.603 1050.64 488.926 1052.21 507.446V507.446Z" fill="#FFB3AE"/>
<path d="M908.715 476.379L906.234 490.257C904.88 497.777 900.736 504.506 894.632 509.097C888.528 513.688 880.916 515.8 873.321 515.011C866.988 514.349 860.443 513.64 853.709 512.836C831.546 510.425 788.898 448.007 788.898 448.007L798.629 432.761C794.848 446.19 792.013 449.618 789.934 449.5C785.586 449.264 785.072 430.157 767.499 438C766.499 438.446 764.649 437.759 765.074 436.801C765.5 435.843 765.121 435.985 765.897 435.282C766.674 434.578 767.589 434.045 768.583 433.716C769.578 433.387 770.63 433.27 771.673 433.372L775.831 433.774C774.464 433.491 773.069 433.357 771.673 433.372H770.728C771.188 428.038 773.147 422.942 776.379 418.675C779.611 414.407 783.984 411.142 788.992 409.256C795.414 407.253 802.349 407.699 808.462 410.51C808.462 410.51 811.273 408.736 818.055 409.351C824.836 409.966 828.427 426.516 828.427 426.516L870.438 463.47C881.611 471.524 894.95 476.022 908.715 476.379Z" fill="#FFB3AE"/>
<path d="M860.042 484.607C859.712 484.61 859.386 484.528 859.097 484.37C858.868 484.248 858.665 484.083 858.5 483.882C858.336 483.682 858.213 483.45 858.138 483.202C858.063 482.954 858.038 482.693 858.065 482.435C858.092 482.177 858.169 481.926 858.293 481.698L868.69 462.311C868.804 462.067 868.966 461.849 869.168 461.669C869.369 461.49 869.605 461.353 869.86 461.268C870.116 461.183 870.386 461.151 870.655 461.174C870.923 461.196 871.184 461.273 871.422 461.4C871.66 461.527 871.869 461.701 872.038 461.912C872.206 462.123 872.33 462.365 872.401 462.625C872.473 462.885 872.491 463.157 872.454 463.424C872.417 463.691 872.326 463.948 872.187 464.179L861.79 483.566C861.616 483.878 861.362 484.138 861.056 484.321C860.749 484.504 860.399 484.602 860.042 484.607Z" fill="#FF7A72"/>
<path d="M1019.22 462.595C1018.89 462.592 1018.56 462.472 1018.3 462.258C1018.03 462.043 1017.85 461.745 1017.78 461.413L1010.29 425.807C1010.22 425.421 1010.29 425.021 1010.51 424.693C1010.73 424.365 1011.07 424.137 1011.45 424.057C1011.64 424.015 1011.84 424.012 1012.03 424.047C1012.22 424.081 1012.4 424.153 1012.56 424.259C1012.72 424.365 1012.86 424.501 1012.97 424.661C1013.08 424.822 1013.16 425.002 1013.2 425.192L1020.69 460.798C1020.73 460.991 1020.73 461.19 1020.7 461.383C1020.66 461.577 1020.59 461.762 1020.48 461.927C1020.37 462.091 1020.23 462.233 1020.07 462.344C1019.91 462.455 1019.72 462.532 1019.53 462.571L1019.22 462.595Z" fill="#002D53"/>
<path d="M908.716 477.939C908.466 477.95 908.219 477.884 908.008 477.75C907.66 477.564 907.401 477.249 907.286 476.872C907.171 476.496 907.209 476.089 907.393 475.74L921.027 450.372C921.225 450.031 921.547 449.78 921.925 449.67C922.303 449.56 922.709 449.6 923.059 449.78C923.402 449.97 923.656 450.288 923.767 450.664C923.877 451.04 923.835 451.445 923.649 451.79L910.016 477.112C909.898 477.357 909.713 477.564 909.484 477.71C909.254 477.856 908.988 477.936 908.716 477.939Z" fill="#002D53"/>
</g>
<defs>
<clipPath id="clip0">
<rect width="434" height="321" fill="white" transform="translate(692 199)"/>
</clipPath>
</defs>
</svg>
